<svg xmlns="http://www.w3.org/2000/svg" viewBox="0 0 85.06 74.93"><defs><style>.cls-1{fill:#00d800;}</style></defs><title>correct</title><g id="Layer_2" data-name="Layer 2"><g id="Layer_1-2" data-name="Layer 1"><path class="cls-1" d="M23.9,30.62a4.42,4.42,0,1,0-6.72,5.74L31,52.42l3.35-2.87-3.36,2.88a4.43,4.43,0,0,0,6.25.48c.12-.1.23-.21.34-.32L83.65,9.65a4.42,4.42,0,1,0-6-6.47l-43,40L23.9,30.62Z"/><path class="cls-1" d="M37.46,0a37.35,37.35,0,0,1,25,9.59l-6.21,6.33A28.54,28.54,0,1,0,65.74,33.1l7.33-7.32A37.48,37.48,0,1,1,37.46,0Z"/></g></g></svg>