<?xml version="1.0" encoding="utf-8"?>
<!-- Generator: Adobe Illustrator 23.0.2, SVG Export Plug-In . SVG Version: 6.00 Build 0)  -->
<svg version="1.1" id="Layer_1" xmlns="http://www.w3.org/2000/svg" xmlns:xlink="http://www.w3.org/1999/xlink" x="0px" y="0px"
	 viewBox="0 0 85.1 74.9" style="enable-background:new 0 0 85.1 74.9;" xml:space="preserve">
<style type="text/css">
	.st0{fill:#FFFFFF;}
</style>
<title>correct</title>
<g>
	<g id="Layer_1-2">
		<path class="st0" d="M23.9,30.6c-1.5-1.9-4.3-2.2-6.2-0.6c-1.9,1.5-2.2,4.3-0.6,6.2c0,0.1,0.1,0.1,0.1,0.2L31,52.4l3.3-2.9
			L31,52.4c1.6,1.9,4.4,2.1,6.2,0.5c0,0,0,0,0,0c0.1-0.1,0.2-0.2,0.3-0.3L83.7,9.6c1.9-1.5,2.2-4.3,0.6-6.2
			c-1.5-1.9-4.3-2.2-6.2-0.6c-0.1,0.1-0.3,0.2-0.4,0.4l-43,40L23.9,30.6z"/>
		<path class="st0" d="M37.5,0c9.2,0,18.1,3.4,25,9.6l-6.2,6.3C44.3,5.6,26.3,6.9,16,18.8S6.9,48.7,18.8,59s29.9,9.1,40.3-2.8
			c5.5-6.3,7.9-14.8,6.7-23.1l7.3-7.3c6.5,19.7-4.2,40.8-23.9,47.3S8.3,68.8,1.9,49.2S6.1,8.3,25.8,1.9C29.5,0.6,33.5,0,37.5,0z"/>
	</g>
</g>
</svg>
