<svg xmlns="http://www.w3.org/2000/svg" viewBox="0 0 95 95"><defs><style>.cls-1{fill:#e80000;}</style></defs><title>wrong</title><g id="Layer_2" data-name="Layer 2"><g id="Layer_1-2" data-name="Layer 1"><path class="cls-1" d="M47.5,0A47.5,47.5,0,1,0,95,47.5,47.54,47.54,0,0,0,47.5,0Zm0,88.4A40.9,40.9,0,1,1,88.4,47.5,40.89,40.89,0,0,1,47.5,88.4Z"/><path class="cls-1" d="M64,31a3.2,3.2,0,0,0-4.6,0L47.5,42.9,35.7,31a3.25,3.25,0,0,0-4.6,4.6L42.9,47.5,31,59.3a3.2,3.2,0,0,0,0,4.6,3.45,3.45,0,0,0,2.3,1,3,3,0,0,0,2.3-1L47.5,52.1,59.3,63.9a3.45,3.45,0,0,0,2.3,1,3,3,0,0,0,2.3-1,3.2,3.2,0,0,0,0-4.6L52.1,47.5,63.9,35.7A3.42,3.42,0,0,0,64,31Z"/></g></g></svg>