<?xml version="1.0" encoding="utf-8"?>
<!-- Generator: Adobe Illustrator 23.0.2, SVG Export Plug-In . SVG Version: 6.00 Build 0)  -->
<svg version="1.1" id="Layer_1" xmlns="http://www.w3.org/2000/svg" xmlns:xlink="http://www.w3.org/1999/xlink" x="0px" y="0px"
	 viewBox="0 0 95 95" style="enable-background:new 0 0 95 95;" xml:space="preserve">
<style type="text/css">
	.st0{fill:#FFFFFF;}
</style>
<title>wrong</title>
<g>
	<g id="Layer_1-2">
		<path class="st0" d="M47.5,0C21.3,0,0,21.3,0,47.5S21.3,95,47.5,95S95,73.7,95,47.5C95,21.3,73.7,0,47.5,0z M47.5,88.4
			c-22.6,0-40.9-18.3-40.9-40.9S24.9,6.6,47.5,6.6s40.9,18.3,40.9,40.9l0,0C88.4,70.1,70.1,88.4,47.5,88.4
			C47.5,88.4,47.5,88.4,47.5,88.4z"/>
		<path class="st0" d="M64,31c-1.2-1.3-3.3-1.3-4.5-0.1c0,0-0.1,0-0.1,0.1L47.5,42.9L35.7,31c-1.3-1.3-3.3-1.3-4.6,0
			c-1.3,1.3-1.3,3.3,0,4.6l11.8,11.9L31,59.3c-1.3,1.2-1.3,3.3-0.1,4.5c0,0,0,0.1,0.1,0.1c0.6,0.6,1.4,1,2.3,1c0.9,0,1.7-0.3,2.3-1
			l11.9-11.8l11.8,11.8c0.6,0.6,1.4,1,2.3,1c0.9,0,1.7-0.3,2.3-1c1.3-1.2,1.3-3.3,0.1-4.5c0,0,0-0.1-0.1-0.1L52.1,47.5l11.8-11.8
			C65.2,34.4,65.2,32.3,64,31z"/>
	</g>
</g>
</svg>
